<?xml version="1.0" standalone="no"?>
<!DOCTYPE svg PUBLIC "-//W3C//DTD SVG 20010904//EN"
 "http://www.w3.org/TR/2001/REC-SVG-20010904/DTD/svg10.dtd">
<svg version="1.0" xmlns="http://www.w3.org/2000/svg"
 width="1280.000000pt" height="1280.000000pt" viewBox="0 0 1280.000000 1280.000000"
 preserveAspectRatio="xMidYMid meet">
<metadata>
Created by potrace 1.16, written by Peter Selinger 2001-2019
</metadata>
<g transform="translate(0.000000,1280.000000) scale(0.100000,-0.100000)"
fill="#000000" stroke="none">
<path d="M8865 12786 c-81 -23 -152 -54 -213 -92 -39 -25 -957 -936 -2968
-2947 -3123 -3123 -2948 -2943 -3010 -3109 -23 -62 -28 -93 -31 -203 -6 -156
8 -229 68 -355 l41 -85 2941 -2941 2942 -2941 85 -41 c111 -54 191 -72 321
-72 160 0 281 36 409 123 54 37 446 421 535 525 122 142 175 284 175 471 0
130 -18 210 -72 321 l-41 85 -2436 2437 -2436 2438 2425 2427 c1860 1861 2433
2441 2459 2485 18 32 47 97 64 145 29 82 31 98 31 223 0 120 -3 144 -27 215
-49 147 -80 188 -367 478 -286 290 -346 338 -482 389 -76 29 -95 32 -223 35
-99 2 -155 -1 -190 -11z"/>
</g>
</svg>
